#!OML:ASF E:\Steps\Project 1\Capture day 1\Session 2\Subject.ASF
:FULLY-SPECIFIED
:DEGREES
663
root 8.19383 18.4428 -4.21166 -157.61 -0.694939 180.244
lowerback -15.4658 -2.60527 -6.14231
upperback 2.69358 -2.28221 -0.226245
thorax 11.9567 -1.50389 2.64034
lowerneck -2.25855 -2.98438 -2.05628
upperneck 18.2561 -3.76877 5.79302
head 6.03135 -1.13108 2.00086
rclavicle 2.42517e-014 1.03368e-014
rhumerus -42.2772 -17.1552 -73.8258
rradius 35.0657
rwrist -2.69149
rhand -6.61609 -52.8667
rfingers 7.12502
rthumb 19.24 -81.935
lclavicle 2.42517e-014 1.03368e-014
lhumerus -28.2159 1.19533 79.7267
lradius 32.7215
lwrist 0.491455
lhand -21.6207 -13.8945
lfingers 7.12502
lthumb 4.77498 16.0317
rfemur -76.59 -2.17514 21.4149
rtibia 73.0019
rfoot -21.3984 -14.6351
rtoes -41.9803
lfemur -28.8475 -8.68847 -21.028
ltibia 21.56
lfoot -12.2645 1.41255
ltoes -13.698
664
root 8.19747 18.4477 -4.28383 -157.661 -0.849436 180.323
lowerback -15.4579 -2.66139 -6.05926
upperback 2.71965 -2.3813 -0.119617
thorax 11.9928 -1.54902 2.68507
lowerneck -2.06924 -2.97578 -1.98577
upperneck 18.4308 -3.7186 5.68636
head 6.04856 -1.09694 1.96251
rclavicle 3.97569e-016 -4.77083e-015
rhumerus -42.4888 -17.5159 -73.6176
rradius 34.7735
rwrist -2.32892
rhand -6.28374 -52.7188
rfingers 7.12502
rthumb 19.5596 -81.7549
lclavicle 3.97569e-016 -4.77083e-015
lhumerus -28.2538 1.04121 79.751
lradius 32.8746
lwrist 0.599519
lhand -21.6281 -13.6565
lfingers 7.12502
lthumb 4.7679 16.2698
rfemur -76.6049 -2.39048 21.4847
rtibia 70.6722
rfoot -20.6514 -14.2739
rtoes -42.2072
lfemur -28.3965 -8.70874 -20.9448
ltibia 21.3091
lfoot -12.3381 1.27752
ltoes -12.9681
665
root 8.19682 18.4508 -4.35756 -157.72 -0.843501 180.362
lowerback -15.5018 -2.62996 -5.95533
upperback 2.7724 -2.35606 -0.0915265
thorax 12.0724 -1.53303 2.6617
lowerneck 0.820227 -2.85806 -2.7086
upperneck 16.9037 -3.47643 5.98281
head 5.08361 -1.06982 2.20981
rclavicle 4.96962e-015 -1.74931e-014
rhumerus -42.6369 -17.9388 -73.4409
rradius 34.3966
rwrist -2.14836
rhand -6.20786 -52.5574
rfingers 7.12502
rthumb 19.6325 -81.5861
lclavicle 4.96962e-015 -1.74931e-014
lhumerus -28.2758 0.905909 79.7615
lradius 32.9548
lwrist 0.602032
lhand -21.6282 -13.5511
lfingers 7.12502
lthumb 4.7678 16.3753
rfemur -76.6601 -2.41138 21.418
rtibia 68.5656
rfoot -20.2167 -13.6784
rtoes -40.8291
lfemur -27.9003 -8.71788 -20.9668
ltibia 21.0536
lfoot -12.5006 1.27783
ltoes -12.6105
666
root 8.1987 18.4541 -4.42837 -157.817 -0.904303 180.393
lowerback -15.332 -2.60743 -5.88579
upperback 2.78455 -2.35459 -0.0406032
thorax 11.9845 -1.52749 2.68437
lowerneck -1.72633 -3.17339 -1.58611
upperneck 18.3858 -3.9312 5.23793
head 5.96838 -1.20628 1.74426
rclavicle 1.96797e-014 1.59028e-015
rhumerus -42.8064 -18.1377 -73.361
rradius 34.0513
rwrist -2.11611
rhand -6.41309 -52.6558
rfingers 7.12502
rthumb 19.4352 -81.7045
lclavicle 1.96797e-014 1.59028e-015
lhumerus -28.2513 0.67593 79.8094
lradius 32.957
lwrist 0.685195
lhand -21.5193 -13.6537
lfingers 7.12502
lthumb 4.87296 16.2703
rfemur -76.7603 -2.36189 21.2881
rtibia 66.8604
rfoot -20.4092 -13.11
rtoes -38.6034
lfemur -27.4273 -8.72611 -20.9724
ltibia 20.9213
lfoot -12.7429 1.28623
ltoes -13.367
667
root 8.20473 18.455 -4.50238 -157.989 -0.964541 180.449
lowerback -15.1093 -2.62867 -5.85975
upperback 2.84197 -2.40858 0.0468316
thorax 11.9267 -1.55404 2.75793
lowerneck -0.685875 -3.14288 -2.34324
upperneck 18.0168 -3.88617 5.87027
head 5.69691 -1.20174 2.08493
rclavicle -5.74488e-014 -1.27222e-014
rhumerus -42.9093 -18.3223 -73.3048
rradius 33.7432
rwrist -1.94887
rhand -6.58954 -52.5016
rfingers 7.12502
rthumb 19.2655 -81.5673
lclavicle -5.74488e-014 -1.27222e-014
lhumerus -28.2509 0.47736 79.8203
lradius 33.0974
lwrist 0.969682
lhand -21.3936 -13.9229
lfingers 7.12502
lthumb 4.9943 15.9983
rfemur -76.698 -2.33317 21.2557
rtibia 65.3143
rfoot -23.644 -11.9214
rtoes -27.5833
lfemur -26.8677 -8.72245 -20.9287
ltibia 20.7906
lfoot -12.9637 1.30069
ltoes -14.3726
668
root 8.20805 18.4533 -4.58095 -158.097 -1.04412 180.499
lowerback -15.013 -2.67106 -5.77653
upperback 2.90532 -2.49163 0.116051
thorax 11.9495 -1.59132 2.7675
lowerneck 0.199711 -3.23192 -3.10655
upperneck 18.1406 -3.9774 6.39255
head 5.61233 -1.24635 2.38728
rclavicle 6.16232e-015 2.14687e-014
rhumerus -43.0772 -18.7364 -73.1706
rradius 33.595
rwrist -1.54963
rhand -6.67394 -52.3051
rfingers 7.12502
rthumb 19.1844 -81.3789
lclavicle 6.16232e-015 2.14687e-014
lhumerus -28.2896 0.448199 79.7915
lradius 33.2053
lwrist 1.16978
lhand -21.3065 -13.9423
lfingers 7.12502
lthumb 5.07841 15.9768
rfemur -76.467 -2.41768 21.2772
rtibia 63.5108
rfoot -21.0546 -11.8365
rtoes -36.7088
lfemur -26.3335 -8.71363 -20.9161
ltibia 20.623
lfoot -13.1322 1.13429
ltoes -14.0747
669
root 8.21212 18.4524 -4.66146 -158.176 -1.18936 180.463
lowerback -14.9593 -2.7201 -5.74303
upperback 2.96948 -2.56959 0.162516
thorax 11.9995 -1.62959 2.77992
lowerneck 0.267099 -3.08781 -2.38299
upperneck 17.132 -3.82161 5.96252
head 5.25763 -1.21166 2.12818
rclavicle 1.09332e-014 3.57812e-014
rhumerus -43.2945 -18.9481 -73.1437
rradius 33.5984
rwrist -1.43507
rhand -6.732 -52.348
rfingers 7.12502
rthumb 19.1286 -81.4273
lclavicle 1.09332e-014 3.57812e-014
lhumerus -28.1751 0.353065 79.8109
lradius 33.1082
lwrist 1.25156
lhand -21.2115 -13.4299
lfingers 7.12502
lthumb 5.17012 16.4871
rfemur -76.1997 -2.54385 21.1658
rtibia 61.6495
rfoot -23.9056 -10.6875
rtoes -26.588
lfemur -25.8245 -8.73737 -20.986
ltibia 20.4641
lfoot -13.3003 0.863843
ltoes -13.591
670
root 8.21893 18.4481 -4.74097 -158.232 -1.2616 180.37
lowerback -14.9674 -2.79519 -5.85684
upperback 3.01223 -2.65507 0.251257
thorax 12.0736 -1.68374 2.91869
lowerneck -0.0152372 -2.97404 -2.22225
upperneck 16.8065 -3.71103 5.9407
head 5.19612 -1.17068 2.09297
rclavicle 2.98177e-015 6.36111e-015
rhumerus -43.3385 -19.1316 -72.992
rradius 33.227
rwrist -1.2676
rhand -6.68897 -52.1554
rfingers 7.12502
rthumb 19.1699 -81.2306
lclavicle 2.98177e-015 6.36111e-015
lhumerus -28.0769 0.376408 79.8957
lradius 33.0349
lwrist 1.30395
lhand -21.3423 -13.2287
lfingers 7.12502
lthumb 5.04384 16.6913
rfemur -76.1754 -2.58759 20.9934
rtibia 60.2968
rfoot -21.313 -10.7677
rtoes -35.2748
lfemur -25.3471 -8.72418 -21.1158
ltibia 20.278
lfoot -13.412 0.726031
ltoes -13.8236
671
root 8.22534 18.4438 -4.82127 -158.303 -1.3673 180.319
lowerback -14.9282 -2.90844 -5.93639
upperback 3.01085 -2.80682 0.384309
thorax 12.0777 -1.76605 3.07251
lowerneck -2.29753 -3.00489 -1.57606
upperneck 18.5861 -3.72386 5.2058
head 6.12202 -1.10241 1.73888
rclavicle 1.8487e-014 6.36111e-015
rhumerus -43.4419 -19.3217 -72.7378
rradius 32.8522
rwrist -1.00081
rhand -6.53554 -51.7465
rfingers 7.12502
rthumb 19.3175 -80.807
lclavicle 1.8487e-014 6.36111e-015
lhumerus -28.2477 0.530108 79.978
lradius 33.1963
lwrist 1.29283
lhand -21.4394 -13.2058
lfingers 7.12502
lthumb 4.95006 16.7164
rfemur -76.1441 -2.62061 20.861
rtibia 59.208
rfoot -21.863 -10.2399
rtoes -34.3481
lfemur -24.8872 -8.71295 -21.1887
ltibia 20.144
lfoot -13.5127 0.585855
ltoes -13.6563
672
root 8.23233 18.4438 -4.91056 -158.475 -1.65829 180.361
lowerback -14.8206 -3.02218 -5.83481
upperback 3.04733 -2.99466 0.48667
thorax 12.0758 -1.8519 3.08225
lowerneck -2.11744 -3.01827 -1.26269
upperneck 18.3554 -3.72868 4.92762
head 6.00753 -1.11663 1.59787
rclavicle 1.53064e-014 -1.11319e-014
rhumerus -43.7677 -18.9956 -72.889
rradius 33.1038
rwrist -1.36942
rhand -6.49148 -51.7322
rfingers 7.12502
rthumb 19.3598 -80.7885
lclavicle 1.53064e-014 -1.11319e-014
lhumerus -28.4397 0.52582 79.9913
lradius 33.3316
lwrist 1.36807
lhand -21.3586 -13.0761
lfingers 7.12502
lthumb 5.02808 16.8442
rfemur -75.9871 -2.6559 20.7678
rtibia 58.438
rfoot -22.4312 -9.67308
rtoes -31.7286
lfemur -24.2932 -8.81496 -21.1234
ltibia 20.0456
lfoot -13.659 0.406393
ltoes -13.9329
673
root 8.24058 18.4435 -5.00263 -158.64 -1.88227 180.412
lowerback -14.7736 -3.0697 -5.73611
upperback 3.10199 -3.08481 0.547091
thorax 12.1176 -1.89163 3.07024
lowerneck -1.61008 -3.00472 -0.714838
upperneck 17.8007 -3.69776 4.59139
head 5.72875 -1.11574 1.40456
rclavicle 2.40529e-014 0
rhumerus -44.1661 -18.6778 -73.1353
rradius 33.5345
rwrist -1.88734
rhand -6.26596 -51.9898
rfingers 7.12502
rthumb 19.5767 -81.0242
lclavicle 2.40529e-014 0
lhumerus -28.5642 0.427039 80.0001
lradius 33.3527
lwrist 1.37478
lhand -21.4468 -13.4216
lfingers 7.12502
lthumb 4.94291 16.5007
rfemur -75.2658 -2.80547 20.8308
rtibia 56.76
rfoot -22.5526 -9.06544
rtoes -29.6302
lfemur -23.6568 -8.87498 -21.0622
ltibia 19.8802
lfoot -13.7853 0.338274
ltoes -15.6495
